<svg viewBox="0 0 85 57" fill="none" xmlns="http://www.w3.org/2000/svg">
    <path
        fill-rule="evenodd"
        clip-rule="evenodd"
        d="M82.5143 48.4103C80.9223 50.0006 78.7632 50.8939 76.5121 50.8939C74.2609 50.8939 72.1019 50.0006 70.5098 48.4103L42.5531 20.476L14.5963 48.4103C13.8132 49.2205 12.8764 49.8667 11.8406 50.3113C10.8048 50.7559 9.69078 50.9899 8.56352 50.9997C7.43625 51.0095 6.31835 50.7948 5.27499 50.3683C4.23163 49.9418 3.28372 49.3119 2.4866 48.5154C1.68947 47.7189 1.05908 46.7718 0.632204 45.7293C0.205332 44.6867 -0.00947289 43.5697 0.000322718 42.4434C0.0101183 41.317 0.244323 40.2039 0.689262 39.1689C1.1342 38.134 1.78096 37.1979 2.59182 36.4154L36.5508 2.48369C38.1429 0.893385 40.3019 1.11115e-06 42.5531 1.11115e-06C44.8042 1.11115e-06 46.9633 0.893385 48.5553 2.48369L82.5143 36.4154C84.1059 38.0062 85 40.1635 85 42.4128C85 44.6622 84.1059 46.8195 82.5143 48.4103Z"
        fill="#fff"
    />
</svg>
